<?xml version="1.0"?>
<svg width="24" height="24" xmlns="http://www.w3.org/2000/svg" xmlns:svg="http://www.w3.org/2000/svg">
 <g class="layer">
  <title>Layer 1</title>
  <text fill="#000000" font-family="Helvetica" font-size="24" font-weight="bold" id="svg_4" stroke-width="0" style="cursor: move;" text-anchor="middle" transform="matrix(0.520498 0 0 0.5131 -30.9918 -5.4282)" x="89.35" xml:space="preserve" y="53.01">60</text>
  <path d="m14.09,18.16zm-10.09,-6.16c0,2.53 1.18,4.78 3.01,6.25l-0.01,2.41c-2.98,-1.72 -5,-4.96 -5,-8.66l2,0zm8,-10c5.19,0 9.45,3.95 9.96,9l-2.02,0c-0.49,-3.94 -3.86,-7 -7.94,-7c-2.74,0 -5.17,1.39 -6.61,3.5l2.61,0l0,2l-6,0l0,-6l2,0l0,2.5c1.83,-2.43 4.73,-4 8,-4z" id="svg_1"/>
 </g>
</svg>